<svg xmlns="http://www.w3.org/2000/svg" version="1.1" xmlns:xlink="http://www.w3.org/1999/xlink" xmlns:svgjs="http://svgjs.dev/svgjs" width="1440" height="560" preserveAspectRatio="none" viewBox="0 0 1440 560"><g mask="url(&quot;#SvgjsMask1080&quot;)" fill="none"><path d="M1536 560L0 560 L0 346.57Q80.69 307.25, 120 387.94Q166.63 362.56, 192 409.19Q230.02 327.21, 312 365.22Q353.57 334.8, 384 376.37Q422.13 294.5, 504 332.64Q547.91 304.55, 576 348.46Q654.67 355.13, 648 433.8Q646.8 360.6, 720 359.4Q747.94 315.34, 792 343.28Q822.79 302.07, 864 332.86Q938.61 287.47, 984 362.08Q1068.35 326.43, 1104 410.78Q1150.85 385.63, 1176 432.47Q1189.94 326.41, 1296 340.35Q1366.46 290.81, 1416 361.27Q1483.18 308.45, 1536 375.64z" fill="rgba(170, 174, 220, 1)"></path><path d="M1488 560L0 560 L0 491.87Q49.18 421.05, 120 470.22Q167.38 397.6, 240 444.97Q296.8 429.77, 312 486.57Q354.9 457.47, 384 500.37Q427.74 424.11, 504 467.85Q536.04 379.89, 624 411.93Q689.88 357.81, 744 423.68Q809.48 417.16, 816 482.64Q860.76 407.4, 936 452.17Q988.21 384.38, 1056 436.59Q1153.38 413.98, 1176 511.36Q1206.65 422.01, 1296 452.66Q1335.82 372.48, 1416 412.3Q1459.24 383.55, 1488 426.79z" fill="rgba(255, 248, 123, 1)"></path><path d="M1464 560L0 560 L0 522.4Q39 489.4, 72 528.41Q121.51 457.92, 192 507.44Q249.61 493.05, 264 550.67Q308.16 522.83, 336 566.98Q377.01 487.99, 456 529Q476.85 477.85, 528 498.7Q582.59 433.29, 648 487.88Q709.1 476.98, 720 538.08Q772.11 518.19, 792 570.3Q818 524.3, 864 550.31Q871.43 485.74, 936 493.17Q978.47 463.64, 1008 506.11Q1083.4 461.51, 1128 536.92Q1158.92 495.84, 1200 526.75Q1238.08 444.83, 1320 482.91Q1365.65 456.56, 1392 502.21Q1449.79 488, 1464 545.78z" fill="rgba(255, 255, 255, 1)"></path></g><defs><mask id="SvgjsMask1080"><rect width="1440" height="560" fill="#ffffff"></rect></mask></defs></svg>